# xmcd CD database file
#
# Track frame offsets:
#	150
#	17456
#	33614
#	58928
#	86010
#	114103
#	132280
#	157313
#	174619
#	190777
#	216091
#	243173
#	271266
#	289443
#
# Disc length: 4191 seconds
#
# Revision: 0
# Processed by: cddbd v1.5.1PL2 Copyright (c) Steve Scherf et al.
# Submitted via: CDex 1.51
#
DISCID=c9105d0e
DTITLE=Diana Krall - Play Piano with Diana Krall
DYEAR=2004
DGENRE=Jazz
TTITLE0=Baby, Baby Alle the Time (Full performance)
TTITLE1=Devil May Care (Full performance)
TTITLE2=Fly Me to the Moon (Full performance)
TTITLE3=The Night We Called It A Day (Full performance)
TTITLE4=Peel Me A Grape (Full performance)
TTITLE5=Straighten Up And Fly Right (Full performance)
TTITLE6=Only Trust Your Heart (Full performance)
TTITLE7=Baby, Baby All the Time (Backing Track, no piano)
TTITLE8=Devil May Care (Backing Track, no piano)
TTITLE9=Fly Me To The Moon (Backing Track, no piano)
TTITLE10=The Night We Called It A Day (Backing Track, no piano)
TTITLE11=Peel Me A Grape (Backing Track, no piano)
TTITLE12=Straighten Up And Fly Right (Backing Track, no piano)
TTITLE13=Only Trust Your Heart (Backing Track, no piano)
EXTD=YEAR: 2004
EXTT0=
EXTT1=
EXTT2=
EXTT3=
EXTT4=
EXTT5=
EXTT6=
EXTT7=
EXTT8=
EXTT9=
EXTT10=
EXTT11=
EXTT12=
EXTT13=
PLAYORDER=
